<svg width="64" height="64" viewBox="0 0 64 64" fill="none" xmlns="http://www.w3.org/2000/svg">
  <defs>
    <linearGradient id="paint0" x1="8" y1="8" x2="56" y2="56" gradientUnits="userSpaceOnUse">
      <stop stop-color="#FDBA74"/>
      <stop offset="1" stop-color="#F97316"/>
    </linearGradient>
    <linearGradient id="paint1" x1="18" y1="14" x2="54" y2="50" gradientUnits="userSpaceOnUse">
      <stop stop-color="#FFFFFF" stop-opacity="0.9"/>
      <stop offset="1" stop-color="#FFF7ED" stop-opacity="0.5"/>
    </linearGradient>
  </defs>
  <rect x="4" y="4" width="56" height="56" rx="16" fill="url(#paint0)"/>
  <rect x="9" y="9" width="46" height="46" rx="14" fill="url(#paint1)" fill-opacity="0.45"/>
  <path d="M20 16h12c1.1 0 2 .9 2 2s-.9 2-2 2h-8v6h7c1.1 0 2 .9 2 2s-.9 2-2 2h-7v6h8c1.1 0 2 .9 2 2s-.9 2-2 2H20a2 2 0 0 1-2-2V18a2 2 0 0 1 2-2Z" fill="#1F2937"/>
  <path d="M36 16h8c5 0 9 4 9 9 0 3.6-2 6.6-5 8 2.8 1 5 4 5 7.5 0 5-4 9.5-9.5 9.5H36a2 2 0 0 1-2-2V18a2 2 0 0 1 2-2Zm2 14h6c2 0 3.5-1.8 3.5-4 0-2.2-1.5-4-3.5-4h-6v8Zm0 6v8h6.5c2 0 3.5-1.8 3.5-4s-1.5-4-3.5-4H38Z" fill="#1F2937"/>
</svg>
