<?xml version="1.0" standalone="no"?>
<!DOCTYPE svg PUBLIC "-//W3C//DTD SVG 20010904//EN"
 "http://www.w3.org/TR/2001/REC-SVG-20010904/DTD/svg10.dtd">
<svg version="1.0" xmlns="http://www.w3.org/2000/svg"
 width="1024.000000pt" height="1024.000000pt" viewBox="0 0 1024.000000 1024.000000"
 preserveAspectRatio="xMidYMid meet">

<g transform="translate(0.000000,1024.000000) scale(0.100000,-0.100000)"
fill="#000000" stroke="none">
<path d="M4946 8126 c-33 -14 -80 -40 -105 -58 -70 -50 -1050 -803 -1747
-1342 -51 -39 -177 -136 -280 -216 -103 -80 -252 -194 -330 -255 -79 -60 -185
-143 -237 -183 -58 -44 -110 -94 -132 -126 -146 -212 -67 -505 166 -616 88
-41 173 -55 256 -40 133 23 116 12 713 471 168 129 386 298 485 375 158 123
668 518 929 719 204 158 432 332 444 339 8 5 106 -66 275 -197 324 -251 612
-474 766 -592 65 -49 306 -236 537 -414 230 -179 487 -377 569 -440 83 -63
173 -133 200 -154 144 -115 322 -143 473 -76 250 109 341 419 186 631 -24 32
-92 91 -188 164 -262 197 -719 546 -1199 913 -755 578 -1406 1064 -1462 1091
-41 19 -69 24 -155 27 -94 3 -111 1 -164 -21z m299 -17 c53 -20 599 -422 588
-433 -4 -3 -1 -6 6 -6 13 0 151 -99 286 -206 50 -39 124 -95 165 -124 41 -29
80 -58 86 -64 18 -17 40 -34 169 -131 157 -118 251 -196 247 -208 -1 -4 2 -6
8 -2 7 5 178 -110 200 -135 11 -13 636 -488 890 -677 203 -151 244 -201 275
-331 15 -60 16 -82 6 -129 -37 -187 -167 -322 -341 -353 -69 -13 -161 -6 -224
16 -33 12 -151 85 -166 103 -11 13 -109 90 -200 156 -52 38 -138 103 -190 145
-110 87 -97 77 -221 172 -53 40 -145 111 -204 158 -59 47 -135 104 -168 128
-33 24 -66 50 -74 58 -8 8 -31 27 -51 42 -21 15 -39 29 -42 32 -3 3 -35 28
-72 54 -37 27 -64 54 -61 59 3 6 1 7 -5 3 -6 -3 -26 6 -44 22 -18 15 -58 46
-88 68 -30 23 -70 55 -88 72 -18 17 -36 31 -40 32 -4 1 -47 33 -97 71 -124 97
-120 94 -245 189 -93 70 -293 226 -400 310 -33 27 -44 25 -87 -13 -21 -19 -85
-69 -142 -113 -58 -43 -138 -105 -179 -136 -41 -32 -79 -55 -83 -52 -5 3 -9
-2 -9 -10 0 -9 -4 -16 -9 -16 -5 0 -44 -29 -88 -65 -91 -76 -86 -72 -150 -122
-257 -197 -380 -291 -463 -353 -47 -35 -87 -67 -90 -70 -3 -3 -53 -43 -111
-88 -58 -44 -111 -88 -119 -96 -7 -9 -18 -16 -25 -16 -8 0 -15 -3 -17 -8 -1
-4 -61 -52 -132 -107 -71 -55 -184 -142 -250 -193 -67 -52 -179 -138 -251
-193 -71 -55 -152 -118 -180 -139 -46 -37 -99 -68 -118 -69 -4 -1 -24 -8 -45
-17 -49 -22 -200 -22 -265 -1 -203 65 -325 301 -261 502 30 97 78 154 224 267
127 98 307 236 329 252 14 11 76 59 136 106 61 47 166 129 234 181 68 51 171
131 230 177 58 45 140 108 181 139 41 31 118 91 171 132 53 42 120 94 149 116
29 22 69 54 90 70 99 78 278 216 405 311 77 57 154 115 170 128 17 13 93 72
170 131 77 60 160 125 185 144 75 61 151 113 189 129 81 34 215 34 306 1z"/>
<path d="M4705 7851 c-3 -5 -2 -12 3 -15 5 -3 9 1 9 9 0 17 -3 19 -12 6z"/>
<path d="M4957 7187 c-3 -8 0 -14 7 -14 7 0 13 6 13 14 0 7 -4 13 -8 13 -4 0
-9 -6 -12 -13z"/>
<path d="M5396 7077 c3 -10 9 -15 12 -12 3 3 0 11 -7 18 -10 9 -11 8 -5 -6z"/>
<path d="M4720 7031 c0 -6 4 -13 10 -16 6 -3 7 1 4 9 -7 18 -14 21 -14 7z"/>
<path d="M4675 6949 c-4 -6 -5 -12 -2 -15 2 -3 7 2 10 11 7 17 1 20 -8 4z"/>
<path d="M4560 6858 c0 -19 2 -20 10 -8 13 19 13 30 0 30 -5 0 -10 -10 -10
-22z"/>
<path d="M5667 6873 c-10 -9 -9 -23 1 -23 5 0 9 7 9 15 0 17 -1 18 -10 8z"/>
<path d="M4490 6858 c6 -7 6 -16 0 -23 -7 -8 -5 -12 4 -12 16 0 15 23 -2 37
-9 7 -9 7 -2 -2z"/>
<path d="M5698 6843 c7 -3 16 -2 19 1 4 3 -2 6 -13 5 -11 0 -14 -3 -6 -6z"/>
<path d="M4519 6813 c-13 -16 -12 -17 4 -4 9 7 17 15 17 17 0 8 -8 3 -21 -13z"/>
<path d="M4428 6773 c7 -3 16 -2 19 1 4 3 -2 6 -13 5 -11 0 -14 -3 -6 -6z"/>
<path d="M6006 6772 c-3 -5 1 -9 9 -9 8 0 12 4 9 9 -3 4 -7 8 -9 8 -2 0 -6 -4
-9 -8z"/>
<path d="M4417 6746 c-3 -8 0 -17 7 -19 10 -4 12 1 9 14 -6 23 -9 24 -16 5z"/>
<path d="M4240 6629 c0 -5 5 -7 10 -4 6 3 10 8 10 11 0 2 -4 4 -10 4 -5 0 -10
-5 -10 -11z"/>
<path d="M6110 6486 c0 -2 7 -7 16 -10 8 -3 12 -2 9 4 -6 10 -25 14 -25 6z"/>
<path d="M6190 6440 c18 -12 30 -13 30 -2 0 4 -10 9 -22 9 -18 2 -20 0 -8 -7z"/>
<path d="M6525 6201 c-3 -5 -1 -12 5 -16 5 -3 10 1 10 9 0 18 -6 21 -15 7z"/>
<path d="M6812 5978 c4 -9 1 -21 -5 -27 -8 -8 -4 -9 13 -6 30 6 30 7 7 29 -15
14 -19 15 -15 4z"/>
<path d="M7010 5841 c0 -6 4 -13 10 -16 6 -3 7 1 4 9 -7 18 -14 21 -14 7z"/>
<path d="M3133 5815 c0 -8 4 -12 9 -9 5 3 6 10 3 15 -9 13 -12 11 -12 -6z"/>
<path d="M3157 5789 c7 -7 15 -10 18 -7 3 3 -2 9 -12 12 -14 6 -15 5 -6 -5z"/>
<path d="M7010 5791 c0 -6 4 -13 10 -16 6 -3 7 1 4 9 -7 18 -14 21 -14 7z"/>
<path d="M3120 5780 c-9 -6 -10 -10 -3 -10 6 0 15 5 18 10 8 12 4 12 -15 0z"/>
<path d="M8060 5770 c-9 -6 -10 -10 -3 -10 6 0 15 5 18 10 8 12 4 12 -15 0z"/>
<path d="M3125 5750 c3 -5 8 -10 11 -10 2 0 4 5 4 10 0 6 -5 10 -11 10 -5 0
-7 -4 -4 -10z"/>
<path d="M8086 5578 c3 -5 10 -6 15 -3 13 9 11 12 -6 12 -8 0 -12 -4 -9 -9z"/>
<path d="M2765 5511 c-3 -6 -14 -8 -25 -6 -27 5 -25 -7 3 -24 12 -7 19 -10 14
-6 -4 5 0 17 10 27 9 10 13 18 10 18 -3 0 -8 -4 -12 -9z"/>
<path d="M2818 5513 c7 -3 16 -2 19 1 4 3 -2 6 -13 5 -11 0 -14 -3 -6 -6z"/>
<path d="M2192 5494 c-7 -8 -8 -14 -3 -14 10 0 25 19 20 25 -2 1 -10 -3 -17
-11z"/>
<path d="M2774 5489 c-3 -6 -2 -15 3 -20 5 -5 9 -1 10 11 2 22 -2 25 -13 9z"/>
<path d="M7420 5491 c0 -6 4 -13 10 -16 6 -3 7 1 4 9 -7 18 -14 21 -14 7z"/>
<path d="M7924 5439 c-3 -6 1 -17 10 -25 9 -8 12 -9 7 -3 -5 6 -7 18 -4 25 6
17 -3 19 -13 3z"/>
<path d="M2265 5419 c-4 -6 -4 -13 -1 -16 3 -4 6 -1 6 7 0 10 4 10 18 -1 15
-13 16 -12 3 4 -16 20 -18 20 -26 6z"/>
<path d="M2308 5423 c7 -3 16 -2 19 1 4 3 -2 6 -13 5 -11 0 -14 -3 -6 -6z"/>
<path d="M2666 5412 c-2 -4 2 -16 10 -27 8 -10 14 -14 14 -8 0 7 -5 15 -10 18
-6 4 -8 11 -5 16 4 5 4 9 1 9 -3 0 -7 -3 -10 -8z"/>
<path d="M2337 5397 c-3 -8 1 -14 9 -14 16 0 19 13 5 21 -5 3 -11 0 -14 -7z"/>
<path d="M2516 5388 c3 -5 10 -6 15 -3 13 9 11 12 -6 12 -8 0 -12 -4 -9 -9z"/>
<path d="M2640 5396 c0 -4 7 -14 15 -22 8 -9 15 -11 15 -6 0 5 -7 15 -15 22
-8 7 -15 9 -15 6z"/>
<path d="M2483 5340 c1 -11 8 -20 15 -20 11 0 12 3 3 14 -9 11 -9 15 1 19 9 4
7 6 -4 6 -11 1 -16 -6 -15 -19z"/>
<path d="M2556 5345 c-4 -12 -2 -13 13 -6 10 6 22 7 26 3 5 -4 5 -1 1 6 -10
17 -33 15 -40 -3z"/>
<path d="M2520 5329 c0 -5 5 -7 10 -4 6 3 10 8 10 11 0 2 -4 4 -10 4 -5 0 -10
-5 -10 -11z"/>
<path d="M2408 5323 c7 -3 16 -2 19 1 4 3 -2 6 -13 5 -11 0 -14 -3 -6 -6z"/>
<path d="M7165 5170 c-151 -24 -261 -110 -318 -250 l-22 -55 -3 -790 -2 -790
-1711 0 -1710 0 0 750 c1 451 -3 774 -9 809 -21 130 -99 233 -218 289 -63 30
-74 32 -177 32 -103 0 -114 -2 -177 -32 -82 -39 -142 -99 -182 -183 l-31 -65
0 -1055 0 -1055 32 -68 c38 -80 116 -166 188 -207 112 -64 -30 -61 2317 -58
l2133 3 51 21 c133 55 237 161 274 281 19 62 20 100 21 1087 0 748 -3 1035
-11 1067 -26 96 -111 193 -207 235 -43 19 -164 47 -183 43 -3 -1 -27 -5 -55
-9z m-4095 -20 c123 -23 236 -115 282 -228 l23 -57 5 -800 c3 -440 6 -801 8
-802 5 -6 3392 -3 3420 3 l31 6 3 802 3 801 29 60 c35 71 113 151 176 182 68
33 179 48 254 33 104 -20 195 -82 251 -169 54 -87 55 -93 55 -1141 0 -1033 -1
-1043 -50 -1146 -50 -101 -199 -212 -309 -228 -25 -4 -995 -7 -2156 -6 -2303
0 -2159 -3 -2260 55 -64 37 -152 136 -187 212 l-32 68 0 1025 0 1025 24 70
c19 57 34 80 79 125 101 99 217 135 351 110z"/>
<path d="M7065 5000 c-3 -6 1 -7 9 -4 18 7 21 14 7 14 -6 0 -13 -4 -16 -10z"/>
<path d="M6977 4993 c-9 -8 12 -33 27 -33 6 0 3 5 -7 11 -9 6 -15 14 -12 20 7
10 2 12 -8 2z"/>
<path d="M7020 4969 c0 -5 5 -7 10 -4 6 3 10 8 10 11 0 2 -4 4 -10 4 -5 0 -10
-5 -10 -11z"/>
<path d="M7050 4960 c-6 -11 -8 -20 -6 -20 3 0 10 9 16 20 6 11 8 20 6 20 -3
0 -10 -9 -16 -20z"/>
<path d="M3215 4910 c-3 -6 1 -7 9 -4 18 7 21 14 7 14 -6 0 -13 -4 -16 -10z"/>
<path d="M7007 4429 c7 -7 15 -10 18 -7 3 3 -2 9 -12 12 -14 6 -15 5 -6 -5z"/>
<path d="M6969 4347 c6 -8 7 -18 3 -22 -4 -5 -1 -5 6 -1 10 6 10 11 1 22 -6 8
-14 14 -16 14 -3 0 0 -6 6 -13z"/>
<path d="M2716 4192 c-3 -5 1 -9 9 -9 8 0 12 4 9 9 -3 4 -7 8 -9 8 -2 0 -6 -4
-9 -8z"/>
<path d="M6975 3839 c-4 -6 -5 -12 -2 -15 2 -3 7 2 10 11 7 17 1 20 -8 4z"/>
<path d="M3065 3709 c-4 -6 -5 -12 -2 -15 2 -3 7 2 10 11 7 17 1 20 -8 4z"/>
<path d="M4928 3243 c6 -2 18 -2 25 0 6 3 1 5 -13 5 -14 0 -19 -2 -12 -5z"/>
<path d="M5410 3246 c0 -2 7 -7 16 -10 8 -3 12 -2 9 4 -6 10 -25 14 -25 6z"/>
<path d="M5968 3243 c6 -2 18 -2 25 0 6 3 1 5 -13 5 -14 0 -19 -2 -12 -5z"/>
<path d="M2723 2935 c0 -8 4 -12 9 -9 5 3 6 10 3 15 -9 13 -12 11 -12 -6z"/>
<path d="M2730 2703 c0 -6 8 -17 18 -24 16 -13 16 -13 2 6 -8 11 -16 22 -17
24 -2 2 -3 0 -3 -6z"/>
</g>
</svg>
